<?xml version="1.0" standalone="no"?>
<!DOCTYPE svg PUBLIC "-//W3C//DTD SVG 20010904//EN"
 "http://www.w3.org/TR/2001/REC-SVG-20010904/DTD/svg10.dtd">
<svg version="1.0" xmlns="http://www.w3.org/2000/svg"
 width="700.000000pt" height="700.000000pt" viewBox="0 0 700.000000 700.000000"
 preserveAspectRatio="xMidYMid meet">
<metadata>
Created by potrace 1.14, written by Peter Selinger 2001-2017
</metadata>
<g transform="translate(0.000000,700.000000) scale(0.100000,-0.100000)"
fill="#000000" stroke="none">
<path d="M3355 6425 c-374 -55 -697 -339 -796 -701 -30 -111 -30 -110 -33
-242 -4 -158 16 -273 73 -407 l21 -50 -32 40 c-62 79 -176 184 -251 233 -417
272 -974 185 -1293 -204 -236 -288 -285 -689 -125 -1030 100 -212 296 -404
491 -480 25 -9 50 -20 55 -24 6 -4 55 -18 110 -30 55 -12 107 -25 115 -27 8
-3 -26 -14 -77 -23 -118 -24 -240 -73 -344 -142 -519 -338 -595 -1072 -156
-1507 158 -156 351 -252 557 -278 68 -9 208 -9 275 0 221 28 459 161 604 337
29 36 57 69 62 74 4 5 -3 -19 -17 -53 -54 -132 -67 -205 -67 -366 0 -129 4
-164 26 -245 194 -731 1089 -980 1632 -455 143 138 239 323 279 530 12 68 14
273 2 325 -3 14 -8 39 -12 55 -10 53 -46 159 -71 208 -13 26 -22 47 -20 47 2
0 19 -24 38 -53 18 -28 67 -86 109 -127 272 -271 659 -355 1031 -225 322 112
585 439 626 780 47 386 -118 749 -433 955 -110 72 -302 144 -403 152 -48 4
-37 15 23 22 175 20 381 124 525 264 316 308 388 785 177 1172 -143 264 -430
462 -721 497 -173 21 -330 3 -490 -56 -159 -60 -336 -196 -440 -341 -55 -76
-67 -88 -38 -40 66 111 106 267 107 425 0 129 -6 188 -30 275 -116 424 -484
713 -924 724 -47 2 -121 -3 -165 -9z m967 -1512 c-25 -49 -50 -112 -58 -148
-1 -5 -10 -39 -20 -75 -18 -67 -26 -288 -13 -360 59 -328 254 -591 543 -730
94 -45 239 -90 292 -90 23 0 43 -16 21 -17 -81 -3 -240 -53 -346 -109 -178
-94 -325 -246 -416 -429 -78 -159 -100 -255 -99 -435 1 -164 19 -255 78 -392
19 -43 32 -78 31 -78 -2 0 -15 21 -30 46 -51 87 -193 221 -310 291 -84 51
-238 106 -335 121 -367 55 -701 -79 -944 -378 -15 -19 -25 -26 -21 -15 36 94
64 181 70 220 3 26 8 57 11 68 6 30 6 184 0 227 -3 19 -8 53 -11 74 -8 60 -61
210 -96 274 -152 275 -404 457 -704 508 -22 4 -48 7 -57 6 -10 0 -18 3 -18 7
0 4 6 8 13 8 127 2 335 80 470 177 362 259 507 748 341 1148 -37 91 -39 97
-15 60 33 -52 158 -176 225 -225 110 -79 287 -157 393 -172 329 -49 620 36
848 248 39 35 90 92 115 126 45 62 58 75 42 44z m-2597 -1413 c3 -5 1 -10 -4
-10 -6 0 -11 5 -11 10 0 6 2 10 4 10 3 0 8 -4 11 -10z m3405 6 c0 -3 -4 -8
-10 -11 -5 -3 -10 -1 -10 4 0 6 5 11 10 11 6 0 10 -2 10 -4z"/>
</g>
</svg>
